<mxfile host="65bd71144e">
    <diagram id="WPqYMdL9iSrQDno1ZYE5" name="Page-1">
        <mxGraphModel dx="248" dy="1592" grid="1" gridSize="10" guides="1" tooltips="1" connect="1" arrows="1" fold="1" page="1" pageScale="1" pageWidth="827" pageHeight="1169" math="0" shadow="0">
            <root>
                <mxCell id="0"/>
                <mxCell id="1" parent="0"/>
                <mxCell id="12" style="edgeStyle=orthogonalEdgeStyle;rounded=0;orthogonalLoop=1;jettySize=auto;html=1;entryX=0.5;entryY=0;entryDx=0;entryDy=0;fillColor=none;" parent="1" source="7" target="14" edge="1">
                    <mxGeometry relative="1" as="geometry">
                        <mxPoint x="1035" y="-674" as="targetPoint"/>
                    </mxGeometry>
                </mxCell>
                <mxCell id="7" value="reveil dans une salle vide" style="whiteSpace=wrap;html=1;strokeWidth=1;strokeColor=#000000;" parent="1" vertex="1">
                    <mxGeometry x="975" y="-904" width="120" height="60" as="geometry"/>
                </mxCell>
                <mxCell id="17" style="edgeStyle=orthogonalEdgeStyle;rounded=0;orthogonalLoop=1;jettySize=auto;html=1;entryX=0;entryY=0.5;entryDx=0;entryDy=0;fillColor=none;" parent="1" source="14" target="16" edge="1">
                    <mxGeometry relative="1" as="geometry"/>
                </mxCell>
                <mxCell id="22" style="edgeStyle=orthogonalEdgeStyle;rounded=0;orthogonalLoop=1;jettySize=auto;html=1;entryX=0.5;entryY=0;entryDx=0;entryDy=0;fillColor=none;" parent="1" source="14" target="21" edge="1">
                    <mxGeometry relative="1" as="geometry"/>
                </mxCell>
                <mxCell id="69" style="edgeStyle=orthogonalEdgeStyle;rounded=0;orthogonalLoop=1;jettySize=auto;html=1;fillColor=none;" parent="1" source="14" edge="1">
                    <mxGeometry relative="1" as="geometry">
                        <mxPoint x="750" y="940" as="targetPoint"/>
                        <Array as="points">
                            <mxPoint x="750" y="-634"/>
                        </Array>
                    </mxGeometry>
                </mxCell>
                <mxCell id="14" value="&lt;span&gt;les murs ce refermes sur vous&lt;/span&gt;" style="rhombus;whiteSpace=wrap;html=1;strokeWidth=1;strokeColor=#000000;" parent="1" vertex="1">
                    <mxGeometry x="960" y="-684" width="150" height="100" as="geometry"/>
                </mxCell>
                <mxCell id="18" style="edgeStyle=orthogonalEdgeStyle;rounded=0;orthogonalLoop=1;jettySize=auto;html=1;entryX=1;entryY=0.5;entryDx=0;entryDy=0;fillColor=none;" parent="1" source="16" target="7" edge="1">
                    <mxGeometry relative="1" as="geometry">
                        <Array as="points">
                            <mxPoint x="1450" y="-874"/>
                        </Array>
                    </mxGeometry>
                </mxCell>
                <mxCell id="16" value="vous mourez transpercer par le bout de fer" style="rounded=0;whiteSpace=wrap;html=1;strokeWidth=1;" parent="1" vertex="1">
                    <mxGeometry x="1390" y="-664" width="120" height="60" as="geometry"/>
                </mxCell>
                <mxCell id="19" value="&lt;font style=&quot;font-size: 11px&quot;&gt;mettre un morceau de fer pour bloquer les murs&lt;/font&gt;" style="text;html=1;align=center;verticalAlign=middle;resizable=0;points=[];autosize=1;shadow=0;glass=0;rounded=0;strokeWidth=1;strokeColor=#141414;" parent="1" vertex="1">
                    <mxGeometry x="1116" y="-630" width="250" height="20" as="geometry"/>
                </mxCell>
                <mxCell id="25" style="edgeStyle=orthogonalEdgeStyle;rounded=0;orthogonalLoop=1;jettySize=auto;html=1;exitX=0.5;exitY=1;exitDx=0;exitDy=0;entryX=0.5;entryY=0;entryDx=0;entryDy=0;fillColor=none;" parent="1" source="21" target="24" edge="1">
                    <mxGeometry relative="1" as="geometry"/>
                </mxCell>
                <mxCell id="21" value="vous franchiser la salle et vous retrouvez dans une suivante" style="rounded=0;whiteSpace=wrap;html=1;shadow=0;glass=0;strokeWidth=1;strokeColor=#000000;" parent="1" vertex="1">
                    <mxGeometry x="975" y="-480" width="120" height="60" as="geometry"/>
                </mxCell>
                <mxCell id="23" value="&lt;font style=&quot;font-size: 11px&quot;&gt;vous grimper sur le dessu du mur&amp;nbsp;&lt;/font&gt;" style="text;html=1;align=center;verticalAlign=middle;resizable=0;points=[];autosize=1;shadow=0;glass=0;rounded=0;strokeWidth=1;strokeColor=#141414;" parent="1" vertex="1">
                    <mxGeometry x="945" y="-550" width="180" height="20" as="geometry"/>
                </mxCell>
                <mxCell id="31" style="edgeStyle=orthogonalEdgeStyle;rounded=0;orthogonalLoop=1;jettySize=auto;html=1;entryX=0.5;entryY=0;entryDx=0;entryDy=0;fillColor=none;" parent="1" source="24" target="29" edge="1">
                    <mxGeometry relative="1" as="geometry"/>
                </mxCell>
                <mxCell id="32" style="edgeStyle=orthogonalEdgeStyle;rounded=0;orthogonalLoop=1;jettySize=auto;html=1;exitX=1;exitY=0.5;exitDx=0;exitDy=0;entryX=0;entryY=0.5;entryDx=0;entryDy=0;fillColor=none;" parent="1" source="24" target="28" edge="1">
                    <mxGeometry relative="1" as="geometry"/>
                </mxCell>
                <mxCell id="34" style="edgeStyle=orthogonalEdgeStyle;rounded=0;orthogonalLoop=1;jettySize=auto;html=1;fillColor=none;" parent="1" source="24" target="33" edge="1">
                    <mxGeometry relative="1" as="geometry"/>
                </mxCell>
                <mxCell id="24" value="&lt;span&gt;vous avez une personne pris dans un tube devant vous&lt;/span&gt;" style="rhombus;whiteSpace=wrap;html=1;strokeWidth=1;strokeColor=#000000;" parent="1" vertex="1">
                    <mxGeometry x="960" y="-340" width="150" height="100" as="geometry"/>
                </mxCell>
                <mxCell id="26" value="&lt;font style=&quot;font-size: 11px&quot;&gt;appuyer sur le bouton Rouge&lt;/font&gt;" style="text;html=1;align=center;verticalAlign=middle;resizable=0;points=[];autosize=1;shadow=0;glass=0;rounded=0;strokeWidth=1;strokeColor=#141414;" parent="1" vertex="1">
                    <mxGeometry x="1161" y="-280" width="160" height="20" as="geometry"/>
                </mxCell>
                <mxCell id="27" value="&lt;font style=&quot;font-size: 11px&quot;&gt;appuyer sur le bouton Bleu&lt;/font&gt;" style="text;html=1;align=center;verticalAlign=middle;resizable=0;points=[];autosize=1;shadow=0;glass=0;rounded=0;strokeWidth=1;strokeColor=#141414;" parent="1" vertex="1">
                    <mxGeometry x="960" y="-190" width="150" height="20" as="geometry"/>
                </mxCell>
                <mxCell id="30" style="edgeStyle=orthogonalEdgeStyle;rounded=0;orthogonalLoop=1;jettySize=auto;html=1;fillColor=none;" parent="1" source="28" edge="1">
                    <mxGeometry relative="1" as="geometry">
                        <mxPoint x="1450" y="-870" as="targetPoint"/>
                        <Array as="points">
                            <mxPoint x="1580" y="-290"/>
                            <mxPoint x="1580" y="-870"/>
                        </Array>
                    </mxGeometry>
                </mxCell>
                <mxCell id="28" value="la piece ce rempli de poison" style="rounded=0;whiteSpace=wrap;html=1;shadow=0;glass=0;strokeWidth=1;strokeColor=#000000;" parent="1" vertex="1">
                    <mxGeometry x="1390" y="-320" width="120" height="60" as="geometry"/>
                </mxCell>
                <mxCell id="40" style="edgeStyle=orthogonalEdgeStyle;rounded=0;orthogonalLoop=1;jettySize=auto;html=1;entryX=0.5;entryY=0;entryDx=0;entryDy=0;fillColor=none;" parent="1" source="29" target="39" edge="1">
                    <mxGeometry relative="1" as="geometry"/>
                </mxCell>
                <mxCell id="29" value="vous franchiser la salle et vous retrouvez dans une suivante" style="rounded=0;whiteSpace=wrap;html=1;shadow=0;glass=0;strokeWidth=1;strokeColor=#000000;" parent="1" vertex="1">
                    <mxGeometry x="975" y="-70" width="120" height="60" as="geometry"/>
                </mxCell>
                <mxCell id="37" style="edgeStyle=orthogonalEdgeStyle;rounded=0;orthogonalLoop=1;jettySize=auto;html=1;exitX=0.5;exitY=0;exitDx=0;exitDy=0;entryX=0;entryY=0.5;entryDx=0;entryDy=0;fillColor=none;" parent="1" source="33" target="7" edge="1">
                    <mxGeometry relative="1" as="geometry"/>
                </mxCell>
                <mxCell id="33" value="la piece et le tube se rempli de poison" style="rounded=0;whiteSpace=wrap;html=1;shadow=0;glass=0;strokeWidth=1;strokeColor=#000000;" parent="1" vertex="1">
                    <mxGeometry x="590" y="-320" width="120" height="60" as="geometry"/>
                </mxCell>
                <mxCell id="35" value="&lt;font style=&quot;font-size: 11px&quot;&gt;appuyer sur le bouton noir&lt;/font&gt;" style="text;html=1;align=center;verticalAlign=middle;resizable=0;points=[];autosize=1;shadow=0;glass=0;rounded=0;strokeWidth=1;strokeColor=#141414;" parent="1" vertex="1">
                    <mxGeometry x="760" y="-280" width="140" height="20" as="geometry"/>
                </mxCell>
                <mxCell id="41" style="edgeStyle=orthogonalEdgeStyle;rounded=0;orthogonalLoop=1;jettySize=auto;html=1;entryX=0.5;entryY=0;entryDx=0;entryDy=0;fillColor=none;" parent="1" source="39" edge="1">
                    <mxGeometry relative="1" as="geometry">
                        <mxPoint x="1035" y="330" as="targetPoint"/>
                    </mxGeometry>
                </mxCell>
                <mxCell id="47" style="edgeStyle=orthogonalEdgeStyle;rounded=0;orthogonalLoop=1;jettySize=auto;html=1;entryX=0;entryY=0.5;entryDx=0;entryDy=0;fillColor=none;" parent="1" source="39" target="45" edge="1">
                    <mxGeometry relative="1" as="geometry"/>
                </mxCell>
                <mxCell id="39" value="&lt;span&gt;il y a une arme charger avec une balle sur la table&lt;/span&gt;" style="rhombus;whiteSpace=wrap;html=1;strokeWidth=1;strokeColor=#000000;" parent="1" vertex="1">
                    <mxGeometry x="960" y="90" width="150" height="100" as="geometry"/>
                </mxCell>
                <mxCell id="58" style="edgeStyle=orthogonalEdgeStyle;rounded=0;orthogonalLoop=1;jettySize=auto;html=1;exitX=1;exitY=0.5;exitDx=0;exitDy=0;entryX=0;entryY=0.5;entryDx=0;entryDy=0;fillColor=none;" parent="1" source="43" target="55" edge="1">
                    <mxGeometry relative="1" as="geometry"/>
                </mxCell>
                <mxCell id="59" style="edgeStyle=orthogonalEdgeStyle;rounded=0;orthogonalLoop=1;jettySize=auto;html=1;exitX=0.5;exitY=1;exitDx=0;exitDy=0;entryX=0.5;entryY=0;entryDx=0;entryDy=0;fillColor=none;" parent="1" source="43" target="57" edge="1">
                    <mxGeometry relative="1" as="geometry"/>
                </mxCell>
                <mxCell id="60" style="edgeStyle=orthogonalEdgeStyle;rounded=0;orthogonalLoop=1;jettySize=auto;html=1;exitX=0;exitY=0.5;exitDx=0;exitDy=0;entryX=1;entryY=0.5;entryDx=0;entryDy=0;fillColor=none;" parent="1" source="43" target="56" edge="1">
                    <mxGeometry relative="1" as="geometry"/>
                </mxCell>
                <mxCell id="43" value="&lt;span&gt;il y a 3 pudins devant vous sur la table&lt;br&gt;&lt;/span&gt;" style="rhombus;whiteSpace=wrap;html=1;strokeWidth=1;strokeColor=#000000;" parent="1" vertex="1">
                    <mxGeometry x="960" y="470" width="150" height="100" as="geometry"/>
                </mxCell>
                <mxCell id="71" style="edgeStyle=orthogonalEdgeStyle;rounded=0;orthogonalLoop=1;jettySize=auto;html=1;entryX=0.5;entryY=0;entryDx=0;entryDy=0;fillColor=none;" parent="1" edge="1">
                    <mxGeometry relative="1" as="geometry">
                        <mxPoint x="365" y="670" as="targetPoint"/>
                        <mxPoint x="365" y="570" as="sourcePoint"/>
                    </mxGeometry>
                </mxCell>
                <mxCell id="46" style="edgeStyle=orthogonalEdgeStyle;rounded=0;orthogonalLoop=1;jettySize=auto;html=1;fillColor=none;" parent="1" source="45" edge="1">
                    <mxGeometry relative="1" as="geometry">
                        <mxPoint x="1580" y="-290" as="targetPoint"/>
                    </mxGeometry>
                </mxCell>
                <mxCell id="45" value="vous tirez une balle dans votre tête" style="rounded=0;whiteSpace=wrap;html=1;shadow=0;glass=0;strokeWidth=1;strokeColor=#000000;" parent="1" vertex="1">
                    <mxGeometry x="1390" y="110" width="120" height="60" as="geometry"/>
                </mxCell>
                <mxCell id="49" value="&lt;font style=&quot;font-size: 11px&quot;&gt;vous tournez rapidement&lt;/font&gt;" style="text;html=1;align=center;verticalAlign=middle;resizable=0;points=[];autosize=1;shadow=0;glass=0;rounded=0;strokeWidth=1;strokeColor=#141414;" parent="1" vertex="1">
                    <mxGeometry x="965" y="240" width="140" height="20" as="geometry"/>
                </mxCell>
                <mxCell id="50" value="&lt;font style=&quot;font-size: 11px&quot;&gt;vous tournez lentement&lt;/font&gt;" style="text;html=1;align=center;verticalAlign=middle;resizable=0;points=[];autosize=1;shadow=0;glass=0;rounded=0;strokeWidth=1;strokeColor=#141414;" parent="1" vertex="1">
                    <mxGeometry x="1186" y="150" width="130" height="20" as="geometry"/>
                </mxCell>
                <mxCell id="53" style="edgeStyle=orthogonalEdgeStyle;rounded=0;orthogonalLoop=1;jettySize=auto;html=1;fillColor=none;" parent="1" source="52" target="43" edge="1">
                    <mxGeometry relative="1" as="geometry"/>
                </mxCell>
                <mxCell id="52" value="la balle ne tire pas, vous franchiser la salle et vous retrouvez dans une suivante" style="rounded=0;whiteSpace=wrap;html=1;shadow=0;glass=0;strokeWidth=1;strokeColor=#000000;" parent="1" vertex="1">
                    <mxGeometry x="975" y="330" width="120" height="60" as="geometry"/>
                </mxCell>
                <mxCell id="64" style="edgeStyle=orthogonalEdgeStyle;rounded=0;orthogonalLoop=1;jettySize=auto;html=1;exitX=1;exitY=0.5;exitDx=0;exitDy=0;fillColor=none;" parent="1" source="55" edge="1">
                    <mxGeometry relative="1" as="geometry">
                        <mxPoint x="1580" y="140" as="targetPoint"/>
                    </mxGeometry>
                </mxCell>
                <mxCell id="55" value="vous mourez empoisoné" style="rounded=0;whiteSpace=wrap;html=1;shadow=0;glass=0;strokeWidth=1;strokeColor=#000000;" parent="1" vertex="1">
                    <mxGeometry x="1390" y="490" width="120" height="60" as="geometry"/>
                </mxCell>
                <mxCell id="67" style="edgeStyle=orthogonalEdgeStyle;rounded=0;orthogonalLoop=1;jettySize=auto;html=1;entryX=1;entryY=0.5;entryDx=0;entryDy=0;fillColor=none;" parent="1" source="56" edge="1">
                    <mxGeometry relative="1" as="geometry">
                        <mxPoint x="440" y="520" as="targetPoint"/>
                    </mxGeometry>
                </mxCell>
                <mxCell id="56" value="vous êtes drogé et traversez les murs" style="rounded=0;whiteSpace=wrap;html=1;shadow=0;glass=0;strokeWidth=1;strokeColor=#000000;" parent="1" vertex="1">
                    <mxGeometry x="590" y="490" width="120" height="60" as="geometry"/>
                </mxCell>
                <mxCell id="57" value="vous entrez dans une pièce sombre et recevez une balle dans la tête&amp;nbsp;" style="rounded=0;whiteSpace=wrap;html=1;shadow=0;glass=0;strokeWidth=1;strokeColor=#000000;" parent="1" vertex="1">
                    <mxGeometry x="975" y="720" width="120" height="60" as="geometry"/>
                </mxCell>
                <mxCell id="61" value="&lt;font style=&quot;font-size: 11px&quot;&gt;puding droit&lt;/font&gt;" style="text;html=1;align=center;verticalAlign=middle;resizable=0;points=[];autosize=1;shadow=0;glass=0;rounded=0;strokeWidth=1;strokeColor=#141414;" parent="1" vertex="1">
                    <mxGeometry x="795" y="530" width="70" height="20" as="geometry"/>
                </mxCell>
                <mxCell id="62" value="&lt;font style=&quot;font-size: 11px&quot;&gt;puding gauche&lt;/font&gt;" style="text;html=1;align=center;verticalAlign=middle;resizable=0;points=[];autosize=1;shadow=0;glass=0;rounded=0;strokeWidth=1;strokeColor=#141414;" parent="1" vertex="1">
                    <mxGeometry x="1206" y="530" width="90" height="20" as="geometry"/>
                </mxCell>
                <mxCell id="63" value="&lt;font style=&quot;font-size: 11px&quot;&gt;puding du centre&lt;/font&gt;" style="text;html=1;align=center;verticalAlign=middle;resizable=0;points=[];autosize=1;shadow=0;glass=0;rounded=0;strokeWidth=1;strokeColor=#141414;" parent="1" vertex="1">
                    <mxGeometry x="990" y="620" width="100" height="20" as="geometry"/>
                </mxCell>
                <mxCell id="72" value="&lt;font style=&quot;font-size: 11px&quot;&gt;vous briser le miroir seulement plus tard&lt;/font&gt;" style="text;html=1;align=center;verticalAlign=middle;resizable=0;points=[];autosize=1;shadow=0;glass=0;rounded=0;strokeWidth=1;strokeColor=#141414;" parent="1" vertex="1">
                    <mxGeometry x="750" y="-630" width="210" height="20" as="geometry"/>
                </mxCell>
                <mxCell id="76" style="edgeStyle=orthogonalEdgeStyle;rounded=0;orthogonalLoop=1;jettySize=auto;html=1;entryX=0.5;entryY=0;entryDx=0;entryDy=0;fillColor=none;" parent="1" target="75" edge="1">
                    <mxGeometry relative="1" as="geometry">
                        <mxPoint x="365" y="770" as="sourcePoint"/>
                    </mxGeometry>
                </mxCell>
                <mxCell id="77" style="edgeStyle=orthogonalEdgeStyle;rounded=0;orthogonalLoop=1;jettySize=auto;html=1;entryX=0;entryY=0.5;entryDx=0;entryDy=0;fillColor=none;" parent="1" source="75" target="7" edge="1">
                    <mxGeometry relative="1" as="geometry">
                        <Array as="points">
                            <mxPoint x="170" y="910"/>
                            <mxPoint x="170" y="-874"/>
                        </Array>
                    </mxGeometry>
                </mxCell>
                <mxCell id="75" value="vous mourez d'over dose" style="rounded=0;whiteSpace=wrap;html=1;shadow=0;glass=0;strokeWidth=1;strokeColor=#000000;" parent="1" vertex="1">
                    <mxGeometry x="305" y="880" width="120" height="60" as="geometry"/>
                </mxCell>
                <mxCell id="78" value="vous arrivez dans une salle&amp;nbsp; avec un petit bonhomme bleu qui vous regade et vous dits félicitaion" style="rounded=0;whiteSpace=wrap;html=1;shadow=0;glass=0;strokeWidth=1;strokeColor=#000000;" parent="1" vertex="1">
                    <mxGeometry x="690" y="940" width="120" height="60" as="geometry"/>
                </mxCell>
                <mxCell id="81" value="vous arriver dans une piece avec un miroir a deux faces" style="rounded=0;whiteSpace=wrap;html=1;shadow=0;glass=0;strokeWidth=1;strokeColor=#000000;" parent="1" vertex="1">
                    <mxGeometry x="310" y="490" width="120" height="60" as="geometry"/>
                </mxCell>
                <mxCell id="83" value="vouz voyez a travers le mirmoir la piece avec les murs qui bouge" style="rounded=0;whiteSpace=wrap;html=1;shadow=0;glass=0;strokeWidth=1;strokeColor=#000000;" parent="1" vertex="1">
                    <mxGeometry x="305" y="690" width="120" height="60" as="geometry"/>
                </mxCell>
                <mxCell id="84" value="1" style="text;html=1;align=center;verticalAlign=middle;resizable=0;points=[];autosize=1;strokeColor=none;" parent="1" vertex="1">
                    <mxGeometry x="960" y="-680" width="20" height="20" as="geometry"/>
                </mxCell>
                <mxCell id="85" value="2" style="text;html=1;align=center;verticalAlign=middle;resizable=0;points=[];autosize=1;strokeColor=none;" parent="1" vertex="1">
                    <mxGeometry x="960" y="-350" width="20" height="20" as="geometry"/>
                </mxCell>
                <mxCell id="86" value="3" style="text;html=1;align=center;verticalAlign=middle;resizable=0;points=[];autosize=1;strokeColor=none;" parent="1" vertex="1">
                    <mxGeometry x="950" y="70" width="20" height="20" as="geometry"/>
                </mxCell>
                <mxCell id="87" value="4" style="text;html=1;align=center;verticalAlign=middle;resizable=0;points=[];autosize=1;strokeColor=none;" parent="1" vertex="1">
                    <mxGeometry x="960" y="460" width="20" height="20" as="geometry"/>
                </mxCell>
                <mxCell id="88" value="1.2" style="text;html=1;align=center;verticalAlign=middle;resizable=0;points=[];autosize=1;strokeColor=none;" parent="1" vertex="1">
                    <mxGeometry x="955" y="-500" width="30" height="20" as="geometry"/>
                </mxCell>
                <mxCell id="89" value="1.3" style="text;html=1;align=center;verticalAlign=middle;resizable=0;points=[];autosize=1;strokeColor=none;" parent="1" vertex="1">
                    <mxGeometry x="1375" y="-690" width="30" height="20" as="geometry"/>
                </mxCell>
                <mxCell id="90" value="1.1" style="text;html=1;align=center;verticalAlign=middle;resizable=0;points=[];autosize=1;strokeColor=none;" parent="1" vertex="1">
                    <mxGeometry x="665" y="890" width="30" height="20" as="geometry"/>
                </mxCell>
                <mxCell id="92" value="0" style="text;html=1;align=center;verticalAlign=middle;resizable=0;points=[];autosize=1;strokeColor=none;" parent="1" vertex="1">
                    <mxGeometry x="950" y="-950" width="20" height="20" as="geometry"/>
                </mxCell>
                <mxCell id="93" value="2.1" style="text;html=1;align=center;verticalAlign=middle;resizable=0;points=[];autosize=1;strokeColor=none;" parent="1" vertex="1">
                    <mxGeometry x="585" y="-350" width="30" height="20" as="geometry"/>
                </mxCell>
                <mxCell id="94" value="2.3" style="text;html=1;align=center;verticalAlign=middle;resizable=0;points=[];autosize=1;strokeColor=none;" parent="1" vertex="1">
                    <mxGeometry x="1375" y="-370" width="30" height="20" as="geometry"/>
                </mxCell>
                <mxCell id="95" value="2.2" style="text;html=1;align=center;verticalAlign=middle;resizable=0;points=[];autosize=1;strokeColor=none;" parent="1" vertex="1">
                    <mxGeometry x="945" y="-100" width="30" height="20" as="geometry"/>
                </mxCell>
                <mxCell id="96" value="3.2" style="text;html=1;align=center;verticalAlign=middle;resizable=0;points=[];autosize=1;strokeColor=none;" parent="1" vertex="1">
                    <mxGeometry x="1375" y="70" width="30" height="20" as="geometry"/>
                </mxCell>
                <mxCell id="97" value="3.1" style="text;html=1;align=center;verticalAlign=middle;resizable=0;points=[];autosize=1;strokeColor=none;" parent="1" vertex="1">
                    <mxGeometry x="945" y="290" width="30" height="20" as="geometry"/>
                </mxCell>
                <mxCell id="98" value="4.1" style="text;html=1;align=center;verticalAlign=middle;resizable=0;points=[];autosize=1;strokeColor=none;" parent="1" vertex="1">
                    <mxGeometry x="575" y="450" width="30" height="20" as="geometry"/>
                </mxCell>
                <mxCell id="99" value="4.1.1" style="text;html=1;align=center;verticalAlign=middle;resizable=0;points=[];autosize=1;strokeColor=none;" parent="1" vertex="1">
                    <mxGeometry x="270" y="450" width="40" height="20" as="geometry"/>
                </mxCell>
                <mxCell id="100" value="4.1.2" style="text;html=1;align=center;verticalAlign=middle;resizable=0;points=[];autosize=1;strokeColor=none;" parent="1" vertex="1">
                    <mxGeometry x="270" y="670" width="40" height="20" as="geometry"/>
                </mxCell>
                <mxCell id="101" value="4.1.3" style="text;html=1;align=center;verticalAlign=middle;resizable=0;points=[];autosize=1;strokeColor=none;" parent="1" vertex="1">
                    <mxGeometry x="270" y="860" width="40" height="20" as="geometry"/>
                </mxCell>
                <mxCell id="102" value="4.2" style="text;html=1;align=center;verticalAlign=middle;resizable=0;points=[];autosize=1;strokeColor=none;" parent="1" vertex="1">
                    <mxGeometry x="945" y="700" width="30" height="20" as="geometry"/>
                </mxCell>
                <mxCell id="103" value="4.3" style="text;html=1;align=center;verticalAlign=middle;resizable=0;points=[];autosize=1;strokeColor=none;" parent="1" vertex="1">
                    <mxGeometry x="1385" y="440" width="30" height="20" as="geometry"/>
                </mxCell>
            </root>
        </mxGraphModel>
    </diagram>
</mxfile>